<?xml version="1.0" encoding="UTF-8" standalone="no"?>
<svg width="1024px" height="1024px" viewBox="0 0 1024 1024" version="1.1" xmlns="http://www.w3.org/2000/svg" xmlns:xlink="http://www.w3.org/1999/xlink">
    <!-- Generator: Sketch 39.1 (31720) - http://www.bohemiancoding.com/sketch -->
    <title>icon</title>
    <desc>Created with Sketch.</desc>
    <defs></defs>
    <g id="Page-1" stroke="none" stroke-width="1" fill="none" fill-rule="evenodd">
        <g id="icon">
            <path d="M512,975 C767.707839,975 975,767.707839 975,512 C975,256.292161 767.707839,49 512,49 C256.292161,49 49,256.292161 49,512 C49,767.707839 256.292161,975 512,975 Z" id="Oval-Copy-2" fill="#FF7900"></path>
            <g id="Group" transform="translate(315.000000, 202.000000)" fill="#FFFFFF">
                <path d="M197,497.404909 C177.977371,497.404909 154.568457,492.209455 136.4,484.416273 C111.282743,474.036909 97.4428571,458.439 97.4428571,441.120818 C97.4428571,408.193182 79.2744,382.215909 57.6315429,351.909091 C30.8059429,312.943182 0.505942857,269.647727 0.505942857,201.229364 C0.505942857,145.799636 19.5285714,95.6115455 54.1571429,59.2087273 C89.6398857,21.1087273 140.728571,0.315363636 197,0.315363636 C253.271429,0.315363636 303.505943,21.1087273 339.842857,59.2087273 C374.471429,95.5653636 393.494057,146.665545 393.494057,201.229364 C393.494057,269.647727 363.194057,312.943182 336.368457,351.909091 C314.7256,382.215909 296.557143,409.047545 296.557143,441.120818 C296.557143,458.439 283.571429,474.036909 257.6,484.416273 C239.431543,492.163273 216.022629,497.404909 197,497.404909 L197,497.404909 Z M197,17.6797273 C145.057143,17.6797273 100.917257,35.8522727 67.9970286,70.4886364 C36.8428571,103.416273 19.5285714,149.274818 19.5285714,200.375 C19.5285714,262.697364 47.2083429,301.663273 74.0916571,339.774818 C96.5886857,371.801909 117.377371,401.242818 117.377371,440.208727 C117.377371,453.197364 136.4,462.722364 144.202971,466.186 C159.797371,473.136364 181.440229,477.465909 197.854171,477.465909 C214.314286,477.465909 235.102971,473.136364 251.516914,466.186 C259.308343,462.722364 278.342514,453.197364 278.342514,440.208727 C278.342514,401.242818 299.1312,371.801909 321.628229,339.774818 C348.453829,301.663273 376.179771,261.843 376.179771,200.375 C376.179771,150.129182 358.865486,104.270636 327.711314,70.4886364 C293.082743,35.8522727 248.942857,17.6797273 197,17.6797273 L197,17.6797273 Z" id="Fill-1"></path>
                <path d="M197.854171,530.274818 C164.945486,530.274818 133.779771,520.761364 108.674057,501.688273 C104.345486,499.067455 103.479771,493.029182 106.954171,488.699636 C109.5744,484.370091 115.611314,483.504182 119.939886,486.979364 C142.436914,503.443182 169.274057,511.247909 198.708343,511.247909 C228.154171,511.247909 254.979771,502.588818 276.622629,486.979364 C280.9512,484.370091 286.999657,485.270636 289.608343,488.699636 C292.228571,493.029182 291.328229,499.067455 287.9,501.688273 C261.0744,520.761364 230.7744,530.274818 197.854171,530.274818 L197.854171,530.274818 Z" id="Fill-2"></path>
                <path d="M197.854171,561.436 C161.517257,561.436 132.071429,552.776909 108.674057,535.458727 C104.345486,532.849455 103.479771,526.799636 106.954171,522.470091 C109.5744,518.140545 115.611314,517.286182 119.939886,520.761364 C140.728571,535.458727 165.845829,543.263455 198.708343,543.263455 C230.728229,543.263455 256.699657,536.324636 276.622629,521.615727 C280.9512,519.006455 286.999657,519.907 289.608343,523.336 C292.228571,527.665545 291.328229,533.703818 287.9,536.324636 C262.782743,552.776909 233.336914,561.436 197.854171,561.436 L197.854171,561.436 Z" id="Fill-3"></path>
                <path d="M288.754171,556.252091 C286.145486,551.922545 280.097029,551.068182 275.768457,554.543364 C252.417257,571.007182 222.971429,573.570273 197.854171,573.570273 C172.736914,573.570273 143.302629,570.961 119.085714,553.642818 C114.757143,551.022 108.720229,551.922545 106.1,555.351545 C103.479771,559.681091 104.391657,565.730909 107.808343,568.340182 C124.268457,580.474455 143.302629,586.512727 161.471086,589.133545 C164.079771,606.451727 178.785371,620.294727 196.953829,620.294727 C215.122286,620.294727 229.874057,606.451727 232.436571,589.133545 C250.616571,586.512727 268.785029,580.474455 286.099314,568.340182 C290.520229,566.677636 291.3744,560.581636 288.754171,556.252091 L288.754171,556.252091 Z M197.854171,602.168364 C190.916914,602.168364 184.868457,597.838818 182.259771,591.789 L197.854171,591.789 L213.460114,591.789 C210.839886,597.838818 204.802971,602.168364 197.854171,602.168364 L197.854171,602.168364 Z" id="Fill-4"></path>
                <path d="M78.4202286,111.163273 C76.7003429,111.163273 74.0916571,110.308909 72.3717714,109.454545 C68.0432,105.979364 67.1890286,99.9410909 70.6634286,96.4659091 C96.6348571,63.5382727 126.934857,44.5113636 165.026286,38.4730909 C170.220571,37.6071818 175.403314,41.0823636 176.303657,46.2662727 C177.157829,51.4617273 173.683429,56.6456364 168.500686,57.5461818 C135.592,63.5844545 108.754857,79.1939091 86.2578286,108.646364 C84.4571429,110.308909 80.9827429,111.163273 78.4202286,111.163273 L78.4202286,111.163273 Z" id="Fill-5"></path>
            </g>
        </g>
    </g>
</svg>