<?xml version="1.0" encoding="UTF-8" standalone="no"?>
<svg width="1024px" height="1024px" viewBox="0 0 1024 1024" version="1.1" xmlns="http://www.w3.org/2000/svg" xmlns:xlink="http://www.w3.org/1999/xlink">
    <!-- Generator: Sketch 40.3 (33839) - http://www.bohemiancoding.com/sketch -->
    <title>icon</title>
    <desc>Created with Sketch.</desc>
    <defs></defs>
    <g id="Page-1" stroke="none" stroke-width="1" fill="none" fill-rule="evenodd">
        <g id="icon">
            <circle id="Oval-3-Copy" fill="#F8DC1C" cx="512.5" cy="512.5" r="463"></circle>
            <g id="Page-1-Copy" transform="translate(233.374776, 283.070662)" fill="#000000">
                <path d="M62.6397671,385.035078 C72.6549045,403.795491 85.1498665,422.472045 100.400189,440.022495 C144.438042,490.601335 202.132901,521.305638 274.155635,521.305638 C346.178369,521.305638 403.873228,490.601335 447.911081,440.022495 C463.161404,422.472045 475.656366,403.795491 485.671503,385.035078 C491.709337,373.714139 495.638721,364.729267 497.651332,359.254485 C501.209342,349.562803 496.201773,338.804916 486.474152,335.246907 C476.78247,331.688898 466.024583,336.696467 462.466573,346.424088 C461.064933,350.317533 457.83038,357.709087 452.631134,367.436709 C443.885858,383.777196 432.936294,400.201542 419.686603,415.403946 C382.249636,458.411533 334.378237,483.868671 274.155635,483.868671 C213.933033,483.868671 166.061634,458.411533 128.624667,415.403946 C115.374976,400.201542 104.425412,383.777196 95.6801366,367.436709 C90.4808906,357.709087 87.2463367,350.317533 85.8446966,346.424088 C82.2866873,336.696467 71.5288005,331.688898 61.8371185,335.246907 C52.109497,338.804916 47.1019283,349.562803 50.6599377,359.254485 C52.672549,364.729267 56.6019331,373.714139 62.6397671,385.035078 L62.6397671,385.035078 Z" id="Fill-1"></path>
                <path d="M236.718668,113.805378 C236.718668,51.7977814 186.415364,1.49447772 124.407767,1.49447772 C62.4001705,1.49447772 12.0968668,51.7977814 12.0968668,113.805378 C12.0968668,175.812975 62.4001705,226.116279 124.407767,226.116279 C186.415364,226.116279 236.718668,175.812975 236.718668,113.805378 L236.718668,113.805378 Z M49.5338337,113.805378 C49.5338337,72.4390275 83.0414166,38.9314446 124.407767,38.9314446 C165.774118,38.9314446 199.281701,72.4390275 199.281701,113.805378 C199.281701,155.171729 165.774118,188.679312 124.407767,188.679312 C83.0414166,188.679312 49.5338337,155.171729 49.5338337,113.805378 L49.5338337,113.805378 Z" id="Fill-3"></path>
                <path d="M161.844734,113.805378 C161.844734,163.737307 86.9708006,163.737307 86.9708006,113.805378 C86.9708006,63.8734494 161.844734,63.8734494 161.844734,113.805378" id="Fill-4"></path>
                <path d="M461.34047,113.805378 C461.34047,163.737307 386.466536,163.737307 386.466536,113.805378 C386.466536,63.8734494 461.34047,63.8734494 461.34047,113.805378" id="Fill-5"></path>
                <path d="M536.214403,113.805378 C536.214403,51.7977814 485.9111,1.49447772 423.903503,1.49447772 C361.895906,1.49447772 311.592602,51.7977814 311.592602,113.805378 C311.592602,175.812975 361.895906,226.116279 423.903503,226.116279 C485.9111,226.116279 536.214403,175.812975 536.214403,113.805378 L536.214403,113.805378 Z M349.029569,113.805378 C349.029569,72.4390275 382.537152,38.9314446 423.903503,38.9314446 C465.269854,38.9314446 498.777436,72.4390275 498.777436,113.805378 C498.777436,155.171729 465.269854,188.679312 423.903503,188.679312 C382.537152,188.679312 349.029569,155.171729 349.029569,113.805378 L349.029569,113.805378 Z" id="Fill-6"></path>
                <path d="M468.875782,353.348429 C491.050446,367.065334 513.045413,371.55777 528.72701,371.55777 C539.065603,371.55777 547.439503,363.183869 547.439503,352.833297 C547.439503,342.494704 539.065603,334.120803 528.72701,334.120803 C526.810237,334.120803 522.545418,333.749428 516.843019,332.575405 C507.151337,330.562794 497.423716,327.004785 488.486763,321.482083 C480.95145,316.857869 474.254726,310.999732 468.552327,303.799855 C462.095199,295.653571 450.342986,294.29985 442.244621,300.709059 C434.110317,307.166187 432.744617,318.90642 439.153825,327.004785 C447.671484,337.774651 457.686622,346.472007 468.875782,353.348429 L468.875782,353.348429 Z" id="Fill-7"></path>
                <path d="M59.8245072,321.482083 C50.8875544,327.004785 41.159933,330.562794 31.468251,332.575405 C25.7658522,333.749428 21.5010329,334.120803 19.5842602,334.120803 C9.24566742,334.120803 0.871766664,342.494704 0.871766664,352.833297 C0.871766664,363.183869 9.24566742,371.55777 19.5842602,371.55777 C35.2658569,371.55777 57.2608237,367.065334 79.4354879,353.348429 C90.6246486,346.472007 100.639786,337.774651 109.157445,327.004785 C115.566653,318.90642 114.200953,307.166187 106.066649,300.709059 C97.968284,294.29985 86.2160713,295.653571 79.7589433,303.799855 C74.0565445,310.999732 67.3598199,316.857869 59.8245072,321.482083 L59.8245072,321.482083 Z" id="Fill-8"></path>
            </g>
        </g>
    </g>
</svg>